<?xml version="1.0" encoding="iso-8859-1"?>
<!-- Generator: Adobe Illustrator 19.0.0, SVG Export Plug-In . SVG Version: 6.00 Build 0)  -->
<svg version="1.1" id="Layer_1" xmlns="http://www.w3.org/2000/svg" xmlns:xlink="http://www.w3.org/1999/xlink" x="0px" y="0px"
	 viewBox="0 0 512 512" style="enable-background:new 0 0 512 512;" xml:space="preserve">
<circle style="fill:#F7B239;" cx="256.004" cy="256.004" r="246.855"/>
<path style="fill:#E09B2D;" d="M126.306,385.694c-88.801-88.802-95.798-228.426-20.998-325.242
	C97.023,66.853,89.051,73.85,81.45,81.45c-96.401,96.401-96.401,252.698,0,349.099s252.698,96.401,349.099,0
	c7.599-7.599,14.597-15.573,20.999-23.858C354.733,481.492,215.108,474.494,126.306,385.694z"/>
<path style="fill:#FFFFFF;" d="M373.277,215.314v42.759c-64.767,64.767-169.779,64.767-234.558,0v-42.759
	C203.498,280.093,308.51,280.093,373.277,215.314z"/>
<path style="fill:#F95428;" d="M285.844,336.845c19.031,0,35.573,10.626,44.028,26.265c-20.166,16.384-45.87,26.192-73.867,26.192
	c-27.998,0-53.702-9.808-73.867-26.192c8.442-15.64,24.997-26.265,44.015-26.265c11.187,0,21.52,3.672,29.852,9.882
	C264.336,340.517,274.657,336.845,285.844,336.845z"/>
<path style="fill:#A81004;" d="M373.277,258.073v13.956c0,32.389-13.127,61.705-34.354,82.919c-2.867,2.879-5.892,5.6-9.052,8.161
	c-8.454-15.64-24.997-26.265-44.028-26.265c-11.187,0-21.508,3.672-29.84,9.882c-8.332-6.209-18.665-9.882-29.852-9.882
	c-19.019,0-35.573,10.626-44.015,26.265c-26.497-21.483-43.418-54.312-43.418-91.081v-13.956
	C203.498,322.84,308.51,322.84,373.277,258.073z"/>
<path d="M171.704,184.358c0,5.053,4.097,9.15,9.15,9.15c5.053,0,9.15-4.097,9.15-9.15c0-31.956-25.998-57.954-57.954-57.954
	s-57.954,25.998-57.954,57.954c0,5.053,4.097,9.15,9.15,9.15s9.15-4.097,9.15-9.15c0-21.866,17.789-39.655,39.655-39.655
	S171.704,162.493,171.704,184.358z"/>
<path d="M379.951,126.405c-31.956,0-57.954,25.998-57.954,57.954c0,5.053,4.097,9.15,9.15,9.15c5.053,0,9.15-4.097,9.15-9.15
	c0-21.866,17.789-39.655,39.655-39.655s39.655,17.789,39.655,39.655c0,5.053,4.097,9.15,9.15,9.15s9.15-4.097,9.15-9.15
	C437.906,152.403,411.908,126.405,379.951,126.405z"/>
<path d="M376.777,206.86c-3.417-1.415-7.355-0.633-9.971,1.984c-29.596,29.602-68.947,45.904-110.805,45.904
	s-81.211-16.302-110.813-45.904c-2.617-2.618-6.552-3.399-9.971-1.984c-3.419,1.416-5.648,4.753-5.648,8.453v56.715
	c0,38.283,17.06,74.071,46.797,98.182c22.415,18.211,50.698,28.24,79.638,28.24c28.941,0,57.223-10.029,79.629-28.234
	c3.438-2.788,6.727-5.753,9.758-8.797c23.883-23.868,37.035-55.615,37.035-89.391v-56.715
	C382.427,211.613,380.197,208.277,376.777,206.86z M256.002,273.048c39.719,0,77.414-13.141,108.124-37.372v18.541
	c-60.387,57.607-155.859,57.607-216.259,0v-18.542C178.583,259.903,216.284,273.048,256.002,273.048z M194.55,360.969
	c7.676-9.378,19.207-14.976,31.601-14.976c8.87,0,17.302,2.79,24.385,8.069c3.244,2.417,7.69,2.417,10.934,0
	c7.083-5.279,15.51-8.069,24.373-8.069c12.393,0,23.928,5.598,31.611,14.978c-17.962,12.409-39.478,19.18-61.451,19.18
	C234.033,380.153,212.517,373.382,194.55,360.969z M332.44,348.493c-0.279,0.282-0.572,0.557-0.856,0.837
	c-11.12-13.555-27.812-21.634-45.739-21.634c-10.623,0-20.819,2.772-29.84,8.066c-9.023-5.295-19.223-8.066-29.852-8.066
	c-17.933,0-34.626,8.082-45.737,21.641c-19.246-18.765-30.744-43.854-32.348-70.78c31.57,24.767,69.75,37.159,107.935,37.159
	c38.177,0,76.347-12.388,107.91-37.145C362.345,304.993,351.328,329.615,332.44,348.493z"/>
<path d="M255.999,0C114.841,0,0,114.841,0,256.001S114.841,512,255.999,512C397.159,512,512,397.159,512,256.001
	C512,114.841,397.159,0,255.999,0z M255.999,493.701c-131.068,0-237.7-106.632-237.7-237.7c0-131.069,106.632-237.702,237.7-237.702
	c131.069,0,237.702,106.632,237.702,237.702C493.701,387.068,387.068,493.701,255.999,493.701z"/>
<g>
</g>
<g>
</g>
<g>
</g>
<g>
</g>
<g>
</g>
<g>
</g>
<g>
</g>
<g>
</g>
<g>
</g>
<g>
</g>
<g>
</g>
<g>
</g>
<g>
</g>
<g>
</g>
<g>
</g>
</svg>
