<?xml version="1.0" encoding="iso-8859-1"?>
<!-- Generator: Adobe Illustrator 19.0.0, SVG Export Plug-In . SVG Version: 6.00 Build 0)  -->
<svg version="1.1" id="Layer_1" xmlns="http://www.w3.org/2000/svg" xmlns:xlink="http://www.w3.org/1999/xlink" x="0px" y="0px"
	 viewBox="0 0 512.001 512.001" style="enable-background:new 0 0 512.001 512.001;" xml:space="preserve">
<circle style="fill:#F7B239;" cx="256.004" cy="256.004" r="246.855"/>
<g>
	<path style="fill:#E09B2D;" d="M126.306,385.694c-88.801-88.802-95.798-228.426-20.998-325.241
		c-8.286,6.401-16.258,13.399-23.858,20.999c-96.401,96.401-96.401,252.698,0,349.099s252.698,96.401,349.099,0
		c7.599-7.599,14.597-15.573,20.999-23.858C354.733,481.492,215.108,474.495,126.306,385.694z"/>
	<path style="fill:#E09B2D;" d="M214.615,366.317c-3.999,0-7.672-2.642-8.806-6.682c-1.364-4.865,1.475-9.916,6.34-11.281
		c28.686-8.042,59.012-8.043,87.7,0c4.865,1.364,7.704,6.414,6.34,11.281c-1.365,4.864-6.414,7.705-11.28,6.34
		c-25.458-7.138-52.366-7.137-77.821,0C216.264,366.207,215.433,366.317,214.615,366.317z"/>
</g>
<path d="M256.001,0C114.841,0,0,114.841,0,256.001s114.841,256.001,256.001,256.001S512.001,397.16,512.001,256.001
	S397.16,0,256.001,0z M256.001,493.701c-131.069,0-237.702-106.631-237.702-237.7S124.932,18.299,256.001,18.299
	s237.702,106.632,237.702,237.702S387.068,493.701,256.001,493.701z"/>
<path d="M261,300.195c-51.768,0-100.436,20.159-137.042,56.765c-3.573,3.573-3.573,9.367,0,12.939c3.573,3.572,9.365,3.574,12.94,0
	c33.148-33.148,77.222-51.405,124.102-51.405s90.954,18.256,124.102,51.405c1.787,1.786,4.128,2.68,6.471,2.68
	c2.341,0,4.683-0.893,6.471-2.68c3.573-3.573,3.573-9.367,0-12.939C361.435,320.355,312.767,300.195,261,300.195z"/>
<path d="M112.871,250.584c0,18.666,15.186,33.852,33.852,33.852s33.852-15.186,33.852-33.852c0-3.914-0.676-7.672-1.903-11.172
	c3.656,0.376,7.477,0.589,11.481,0.589c10.598,0,22.412-1.442,35.442-4.985c4.875-1.326,7.753-6.353,6.428-11.231
	c-1.327-4.877-6.362-7.753-11.231-6.428c-64.861,17.643-92.98-23.546-94.224-25.432c-2.744-4.223-8.388-5.438-12.626-2.709
	c-4.249,2.735-5.475,8.397-2.74,12.646c0.305,0.476,6.439,9.849,19.049,19.163C119.893,226.822,112.871,237.897,112.871,250.584z"/>
<path d="M398.059,189.217c-4.248-2.735-9.912-1.509-12.645,2.74c-0.279,0.434-28.711,43.216-94.205,25.402
	c-4.871-1.322-9.903,1.551-11.231,6.428c-1.326,4.876,1.552,9.903,6.428,11.231c13.033,3.544,24.843,4.985,35.442,4.985
	c4.003,0,7.823-0.214,11.48-0.589c-1.227,3.5-1.903,7.257-1.903,11.172c0,18.666,15.186,33.852,33.852,33.852
	s33.852-15.186,33.852-33.852c0-12.689-7.021-23.762-17.378-29.558c12.611-9.314,18.744-18.688,19.049-19.163
	C403.534,197.614,402.308,191.953,398.059,189.217z"/>
<g>
	<circle style="fill:#FFFFFF;" cx="153.566" cy="249.27" r="9.15"/>
	<circle style="fill:#FFFFFF;" cx="371.935" cy="249.27" r="9.15"/>
</g>
<g>
</g>
<g>
</g>
<g>
</g>
<g>
</g>
<g>
</g>
<g>
</g>
<g>
</g>
<g>
</g>
<g>
</g>
<g>
</g>
<g>
</g>
<g>
</g>
<g>
</g>
<g>
</g>
<g>
</g>
</svg>
